# xmcd CD database file
#
# Track frame offsets:
#	150
#	10665
#	25726
#	45219
#	65041
#	80522
#	108642
#	126136
#	145924
#	163220
#	184751
#
# Disc length: 2726 seconds
#
# Revision: 0
# Processed by: cddbd v1.5.2PL0 Copyright (c) Steve Scherf et al.
# Submitted via: CDex 1.70beta2
#
DISCID=8e0aa40b
DTITLE=Benoît Blue Boy and Les Tortilleurs - Micmac
DYEAR=2006
DGENRE=Blues
TTITLE0=Jusque Là
TTITLE1=Encore Un Petit Effort
TTITLE2=Les Temps Changent
TTITLE3=La Vie Farouche
TTITLE4=Gumbo Poulet
TTITLE5=Si Je Voulais
TTITLE6=La Même Erreur
TTITLE7=Ma Chérie, ma chérie
TTITLE8=C'est Tout Correct
TTITLE9=Allonz Au Tortuillage
TTITLE10=Allez Tout Fait
EXTD=YEAR: 2006
EXTT0=
EXTT1=
EXTT2=
EXTT3=
EXTT4=
EXTT5=
EXTT6=
EXTT7=
EXTT8=
EXTT9=
EXTT10=
PLAYORDER=
